<?xml version="1.0" encoding="utf-8"?>
<!-- Generator: Adobe Illustrator 24.0.0, SVG Export Plug-In . SVG Version: 6.00 Build 0)  -->
<svg version="1.1" id="Layer_1" xmlns="http://www.w3.org/2000/svg" xmlns:xlink="http://www.w3.org/1999/xlink" x="0px" y="0px"
	 viewBox="0 0 1831.4 1354.1" style="enable-background:new 0 0 1831.4 1354.1;" xml:space="preserve">
<g>
	<path d="M629.9,1352.1c-27.1-2.7-40.2-5.7-61.3-14c-8.1-3.2-16.7-6.2-19.3-6.7c-7.7-1.6-25.8-9.7-35.1-15.7
		c-14-8.9-35.2-27.1-41.2-35.4c-3.1-4.2-7.2-9.4-9.1-11.6c-8.6-9.7-20.3-36.6-24-55.3c-4.5-22.7-7.1-42.8-7.3-56.7
		c-0.8-46,7.7-105.3,20.6-143.3c2.1-6.2,8.2-24.8,13.5-41.3c15.4-48,19.8-58,39.7-90.7c8.9-14.6,11.2-22.4,8.3-27.8
		c-2.8-5.3-6.2-3.4-14.7,8.1c-4.5,6-9.9,13.2-12.1,15.9s-5.2,7.2-6.8,10c-4.6,8.1-11.8,14.9-21.1,20.1
		c-23.4,12.9-32.7,18.6-38.4,23.6c-14,12.3-28.4,22-43.2,29.2c-8.6,4.2-16.9,7.6-18.4,7.6s-5,1.1-7.7,2.5c-2.7,1.4-10,4.2-16.3,6.3
		c-10.6,3.6-12.6,3.8-30.7,3.7c-15.4-0.1-21-0.7-27.6-2.8c-11.6-3.8-14-2.9-22.5,7.7c-4,5-10.4,12.6-14.3,16.8
		c-3.9,4.3-9.3,10.8-11.9,14.4s-7.7,9.4-11.1,12.7c-3.4,3.3-10.3,12.1-15.3,19.5c-11.6,17.4-27.6,36.8-37.2,45
		c-4.1,3.6-8.7,7.8-10.2,9.4c-4,4.5-32.4,30.1-40,36.1c-3.7,2.9-6.9,5.7-7.1,6.3c-0.2,0.6-5,5-10.7,9.8
		c-7.6,6.5-15.2,11.2-29.6,18.3l-19.3,9.5l-21.3-0.4c-21.2-0.4-21.4-0.4-24.5-3.9c-3.1-3.4-3.1-4-2.1-16.3c0.6-7,0.9-22.2,0.7-33.9
		c-0.3-18.5,0-22.3,2.6-30.7c5.1-16.8,9.3-35.5,9.3-41.9c0-4,1.3-8.9,3.5-13.6c1.9-4,5.5-13.3,7.9-20.7
		c5.4-16.4,11.9-33.6,13.6-35.7c0.7-0.9,4.1-8.9,7.5-17.7c4.7-12.2,8-18.3,13.4-25.1c3.9-4.9,8.4-12.4,10-16.5
		c5.3-13.9,6.5-16,16.7-29.5c12.5-16.5,33-37.4,44.9-45.9c17-12.1,29.4-15.9,56.9-17.6c13.4-0.8,16.3-0.6,24,1.8
		c4.8,1.5,10.3,3.1,12.3,3.5c10.6,2,31.1,27.1,38.1,46.7c4.4,12.2,7.7,15,14.7,12.6c3.1-1.1,4.8-3.1,7-8.3
		c1.6-3.8,6.1-11.1,9.9-16.2c3.8-5.1,9.8-13.5,13.1-18.7c12.2-18.5,25.4-37.1,31.2-43.8c3.2-3.8,8.6-11.4,11.9-16.9
		s15.4-23.1,26.9-39.2s25-35.8,30-43.9c5-8.1,10.7-16.8,12.8-19.5c7.5-9.7,21.3-30.4,27.6-41.4c3.6-6.2,9.9-16.3,14.2-22.3
		c4.2-6.1,8.7-13,9.9-15.3c2.4-4.7,10.4-15.8,17.5-24.2c2.4-2.9,4.4-5.7,4.4-6.3c0-2.3,16.4-27.9,23.9-37.2
		c4.4-5.5,10.1-13.9,12.5-18.7c2.5-4.8,8.2-14,12.8-20.5s8.9-13.3,9.5-15c0.6-1.7,4.5-7.9,8.5-13.9c9-13.2,10-16.3,6.4-21.1
		c-2.5-3.4-3.3-3.6-14.5-3.6c-17.9-0.1-34.1-1.8-52.5-5.4c-13.6-2.6-19-4.4-29.3-9.7c-7-3.6-15.1-7.2-18-8.2
		c-17.9-5.7-43.8-29.6-59.2-54.7c-14.4-23.4-25.2-46.1-27.7-58.1c-2.2-10.5-2.2-11,0.8-21.3c1.6-5.8,5.6-23.7,8.9-39.7
		c6.8-33.6,7.8-35.5,20.8-42.1c9.4-4.7,10.5-4.9,15.9-2.1c3.3,1.7,3.9,2.8,3.9,7.2c0,4-1.4,7.3-6.1,14.2
		c-10.9,15.9-12.4,21.8-16.1,62.6c-1.4,15.7,7.4,41.4,21.5,62.6c2.4,3.7,6,9.4,7.9,12.8c3.5,6.2,25.4,28.7,32.4,33.3
		c2,1.3,6.7,3.1,10.4,3.9c3.7,0.8,10.6,3.7,15.4,6.6c9.5,5.6,15.2,7.5,27.3,8.8c4.4,0.5,12.8,1.8,18.7,2.9c8.1,1.6,15.8,1.9,32,1.4
		c23.7-0.8,33-2.9,39.1-9c6-6,18.2-26.5,27.4-46.3c9.1-19.4,13-26.5,22.9-41.7c3.1-4.8,6.1-10.2,6.6-12s3-6.5,5.4-10.3
		c2.4-3.8,6.2-10.4,8.4-14.7c2.2-4.2,7.3-11.6,11.3-16.4c7-8.2,20.8-31,20.8-34.4c0-2,20.9-37.4,26.8-45.6
		c2.4-3.3,8.1-11.7,12.7-18.7c4.6-7,12.3-17.8,17.1-24c4.8-6.2,10.7-15.2,13.1-19.9c3.3-6.5,6.6-10.5,13.8-16.7
		c6.7-5.7,10.6-10.2,13.1-15.4c2-4,6.8-10.4,10.8-14.2c4.9-4.7,7.2-8,7.2-10.2c0-12,25.1-42.2,47.8-57.5
		c7.1-4.8,16.7-11.4,21.3-14.7c4.6-3.3,9.8-6,11.4-6c3.2,0,16.9,7.7,22,12.4c5.1,4.8,6.8,9.3,9,25.2c3.6,25.4,3.6,27.3,0.6,63.1
		c-2.3,27.9-3.6,36.6-6.2,44.5c-1.8,5.4-3.9,12.9-4.7,16.7c-0.8,3.7-3.5,11.7-6,17.8s-5.5,14.7-6.7,19.3
		c-2.5,9.9-6.4,17.7-13.4,27.4c-12.6,17.3-18.5,26-27.8,40.3c-5.5,8.4-14.4,20.1-19.7,26s-13,14.6-17,19.3
		c-11.7,14-26.5,29.1-37.2,37.8c-5.5,4.4-15.1,12.9-21.3,18.9c-17.8,16.9-31.9,28.5-41.6,34.2c-4.9,2.9-10.7,6.7-12.8,8.5
		c-5.7,4.8-39.2,19.9-51.3,23.2c-5.7,1.5-16.2,5.8-23.3,9.4c-15.6,7.9-25.4,17.3-33.2,32.1c-2.9,5.5-8.7,15.1-12.9,21.3
		c-4.2,6.2-10.7,16-14.6,21.6c-3.8,5.7-9.6,15-12.9,20.7c-3.3,5.7-9.9,16.1-14.8,23c-4.9,7-10,14.8-11.3,17.3
		c-3.3,6.4-41.6,63.8-55.2,82.6c-6.1,8.4-12.2,17.7-13.7,20.6c-3.4,6.7-16.9,27.2-18.5,28.2c-0.7,0.4-3,4.2-5.1,8.3
		c-4.6,9.1-14,23.1-36.5,54.6c-3.8,5.3-13.2,18.8-20.8,30c-13.2,19.3-27.9,37.5-41.6,51.8c-3.4,3.5-6.9,8.7-7.8,11.5
		c-0.9,2.8-3.2,7.1-5.2,9.7s-4.7,6.8-6.1,9.3s-4.3,6.9-6.7,9.7s-6.9,9.8-10.1,15.8c-3.8,7.1-7.1,11.4-9.6,12.7
		c-6.7,3.4-9,6.7-9,12.6c0,9.3,5.8,17.2,12.7,17.2c6.7,0,18.1-3.9,25.3-8.6c3.7-2.4,9-5.1,11.8-6c5.7-1.8,45.5-28.3,63.5-42.1
		c6.2-4.8,15.4-11.4,20.3-14.8c11.3-7.6,37.3-34.7,48.1-50.1c7-10,15.6-21.3,51.9-68.8c21.6-28.3,41.4-56.9,51.3-74.4
		c4.2-7.3,10.3-17.6,13.6-22.7c3.3-5.2,8.3-14.2,11-20c2.7-5.8,10.4-22.3,17.2-36.6c6.8-14.3,15.6-32.9,19.5-41.3
		c4-8.4,7.9-16.8,8.8-18.6c2.5-5.2,7.1-6.9,16.6-6.2c10.9,0.8,20,5.3,23.6,11.8c2.5,4.6,2.5,5,0.3,9.6c-3.1,6.5-3,17,0.1,19.8
		c6,5.4,13.7,0.2,23.3-15.8c4.8-7.9,41.9-44.9,48.7-48.6c1.7-0.9,6.7-5,11.1-9s11.3-9.5,15.5-12.2s11.8-8.3,16.9-12.4
		c13.4-10.7,49.6-35,59.5-40c4.7-2.3,11.2-6.2,14.5-8.6c7.1-5.1,48.4-25.5,66.6-33c20.5-8.4,44.7-16.9,64.7-22.7
		c15.9-4.6,21-5.5,34.3-6c13.9-0.5,17-0.2,27.7,2.9c6.7,1.9,14.4,4.6,17.2,6.1c10.8,5.5,15.7,15.8,14.3,30.1
		c-2.9,28.7-3.4,31.1-8.6,43.5c-2.9,6.9-6.3,16.3-7.5,20.9c-1.2,4.6-7.2,19-13.3,32c-7.1,15.2-11.6,26.5-12.5,31.8
		c-1.4,8.2-4.9,15.7-12.4,27.3c-3.8,5.8-8.6,19.6-14.7,42.5c-1.5,5.5-5.3,15.4-8.5,22c-3.2,6.6-6.5,14.4-7.4,17.3
		c-0.9,2.9-2.6,7.1-3.7,9.3s-2.5,9.1-3.1,15.3c-0.6,6.2-1.6,14-2.4,17.3c-0.7,3.3-1.4,23.7-1.4,45.3c0,44.3-0.5,41.7,11.1,59.7
		c11.9,18.4,23.3,21.7,44.9,13.1c15.5-6.2,29-16.3,49.9-37.4c18.1-18.3,30.5-34.4,36.9-48.1c4.2-8.9,4.3-9.9,4-23.5
		c-0.4-17,2.9-29.9,8.6-34.5c4.7-3.7,13.6-3.7,18.2,0c3.6,2.9,3.7,3.2,6.2,23.9c1.9,15.7,4.5,21.7,13,29.6
		c7.9,7.3,14.9,9.7,24.9,8.4c16.3-2.1,22.2-5.1,22.2-11.2c0-4.3-2.3-7.8-12-18.1c-10-10.6-15.9-21.8-22.7-42.6l-5.6-17.3l-0.2-26.1
		c-0.2-18.6,0.3-27.8,1.6-32.1c2.6-8.8,10.5-28.6,15.7-39.5c2.5-5.2,4.5-9.9,4.5-10.3c0-0.4,3.4-6.9,7.5-14.5
		c13-23.6,32.3-51.4,46.4-66.8c20.1-21.9,45.7-46.9,54.5-53.2c4.3-3.1,12.1-9.1,17.3-13.3c17.2-13.9,24.3-16.1,40-12.4
		c12.8,3,13.3,4,14.7,28.5c1.8,31.5,1.6,34-3.6,49c-4.1,11.7-4.8,16-6.1,35.3c-2,28.9-3.1,35.5-9.6,55.7
		c-10.3,32.4-13.6,54-13.3,86.9c0.1,13.7-0.5,29.8-1.4,36.3c-2,14.1-0.8,20.8,4.3,23.6c4.8,2.7,10.1,1,15.1-4.9
		c2.3-2.7,6-6.7,8.2-8.9s5.5-6.1,7.3-8.7c1.8-2.6,8.1-9.8,14-16.1c14.5-15.5,23-25.7,36.2-43.9c6.1-8.4,12.3-16.9,13.7-18.7
		c7.9-10.4,32.3-57,39.2-74.6c5.8-15,11.6-34.1,14.3-47.2c1.4-7,4.6-18.5,7.1-25.7c2.5-7.2,5.3-16.4,6.2-20.4
		c0.9-4,2.5-8.9,3.4-10.7c0.9-1.9,2.7-9.4,3.9-16.7s2.9-15.6,3.7-18.4c1.6-5.7,6.5-10.2,10.9-10.2c3.7,0,14.1,6.6,17.8,11.3
		c4.2,5.3,3.7,11.5-2.4,30.3c-2.9,9-6,20.6-6.8,25.7c-1.5,9.6-9.2,36-16,54.7c-2.1,5.9-4.4,14-5.1,18c-2.4,14.9-8.1,44.7-8.9,46.7
		c-0.4,1.1-1,9.8-1.2,19.3c-0.2,11.2-1.1,19.7-2.5,24c-3.9,12.4-2.2,20.8,4.9,23.3c6.8,2.4,12.1,0.3,23.2-8.8
		c11.3-9.3,47.4-46.4,73.2-75.2c8.8-9.9,18-19.3,20.4-20.9c14.2-9.6,36.6-1.9,46.1,15.8c4.7,8.7,14.8,23.1,19.6,27.8
		c3.8,3.7,11.7,6.7,17.9,6.6c3.8,0,13.6-4.8,26.8-13.2c13.3-8.4,25.3-6.2,41.5,7.7c4.1,3.5,9.5,7.8,11.9,9.4
		c5.2,3.6,8.8,9.9,7.6,13.6c-2.5,7.9-23.4,9.8-43,4c-10.2-3-11.6-3.1-18.7-1.5c-13.8,3.2-17.8,3.5-37.6,2.8
		c-18.9-0.6-19.8-0.8-28.1-5.1c-10.9-5.7-20.4-14.8-25.3-24.5c-7.7-15.1-16-15.9-21.7-2.1c-1.1,2.8-5,8.2-8.6,12
		c-3.6,3.8-8.3,9.7-10.6,13s-7.9,9.6-12.6,13.9c-4.7,4.4-15.4,14.6-23.8,22.7c-12.3,11.9-17.8,16.1-28,21.6
		c-11.4,6.1-13.8,6.9-24.6,7.8c-17.6,1.6-21.3,1.3-29.3-2.7c-9-4.4-13.2-9.3-16.2-18.9c-2.7-8.5-6.2-11.5-12.7-10.9
		c-4,0.4-4.9,1.3-9.8,10.7c-8.6,16.6-12.9,23.4-21.3,34.5c-4.4,5.8-10.4,13.9-13.3,18.1c-10.8,15.4-38.8,40.5-52.1,46.6
		c-8.7,4-18.3,5.8-31.2,5.8c-12.9,0-17.7-2.8-23-13.2c-4.5-8.8-4.5-10.5-0.4-38.5c1.8-12.2,4.2-34.6,5.5-49.6
		c1.4-16.9,3.4-32.2,5.3-40c4.9-19.9,5.7-25.1,6.7-40c0.5-7.7,2.3-20,4-27.3c4.6-19.7,7.3-33.4,7.3-37.7c0-2.1,1.2-8.3,2.6-13.7
		s3.2-16.8,4-25.3c0.8-8.4,1.8-19.3,2.3-24.2c0.8-8.5,0.7-8.9-2.6-11.1c-3.3-2.2-3.7-2.2-9.5,0.6c-3.3,1.6-7.4,4.5-9,6.4
		c-1.7,1.9-5.7,5.9-8.9,8.9c-18.4,17.1-33.8,33.1-37.9,39.5c-2.6,4-8.9,12.2-14.2,18.3s-9.5,11.5-9.5,12.2s-2.9,4.4-6.5,8.3
		s-8.5,10.4-10.8,14.4c-4.8,8.2-15.7,32.9-19.3,44c-1.3,4-4.2,11.2-6.4,15.9c-7.1,15.5-9.1,53.3-4,77.7c4,19.2,7.8,26.4,20.2,38.3
		c14.2,13.6,26.7,31.2,26.7,37.5c0,2.6-0.9,6-1.9,7.5c-3.8,5.4-20.3,12-39.8,15.8c-20.2,4-23.3,3.7-40.2-3.1
		c-12.1-4.9-28.8-8.8-31.2-7.4c-1.2,0.7-4.4,5.5-7.2,10.6c-5.1,9.3-10.1,14.8-40.6,44.1c-16.9,16.2-33.4,27.4-49.6,33.6
		c-13.7,5.2-22.7,6.6-40.7,6.3c-13.4-0.2-15.5-0.6-23.8-4.5c-11.7-5.5-17.9-10.5-25.3-20.2c-9.6-12.7-10.8-19.5-9.8-54.3
		c1.4-49.3,3-67.7,6.8-78.9c1.9-5.4,4.4-15,5.5-21.3c1.2-6.3,4.2-18.6,6.8-27.4s5.5-19.1,6.5-23s4-11.1,6.5-16.2s5.3-12.1,6.1-15.7
		c2.3-9.7,3.9-13.7,9.7-23c2.9-4.7,6.4-12.8,7.8-18c1.4-5.2,4.5-13.2,7-17.6c5.7-10.4,17.2-38,19.4-46.6c1-3.7,3.7-11.3,6.2-16.9
		s5.4-14.6,6.5-20c1.1-5.4,2.9-12.5,3.8-15.8c2.5-8.3,1.3-14.1-3.9-19.3c-10.1-10.1-29-9.1-61.3,3.2c-7.3,2.8-22.9,8.2-34.7,12.1
		c-19.9,6.5-45.5,17.9-54,24c-2,1.4-7.8,4.5-12.8,6.7c-5,2.2-11.2,6.1-13.8,8.6c-5.6,5.4-21.3,14.4-29.1,16.8
		c-4.5,1.4-9.2,5.3-23.3,19.5c-14.7,14.9-18.6,18.1-23.7,19.6c-13.5,4-24.7,11.9-39.8,28.1c-4.1,4.4-10.6,11-14.5,14.7
		c-15.6,14.7-35.7,35.2-43.3,44c-4.4,5.1-14.7,16.5-22.8,25.2c-8.1,8.7-16.2,18-18,20.6c-4.2,6.2-6.8,15.1-6.8,23.6
		c0,3.8-0.9,9.8-1.9,13.5s-3.8,17-6.1,29.7s-4.8,24.7-5.5,26.7s-2,12-2.7,22.2c-0.7,10.3-1.3,19.6-1.4,20.7
		c-0.1,1.1-0.1,9.3,0.1,18.3c0.2,14.7,0.5,16.6,3,19.2c3.5,3.5,10.1,2.8,15.7-1.7c4.3-3.4,21.4-23.8,27.8-33.1
		c2.3-3.3,7.2-9.6,11-14c9.8-11.5,20-27.2,28-43.3c3.8-7.7,9-17.6,11.4-22c5.5-9.8,9.2-19.8,12-31.9c2.6-11.2,7.4-20.9,12.1-24.7
		c4.5-3.6,11-3.6,22.3-0.1c13.5,4.2,14.4,5.3,16.3,20.8c2.8,23.7,9.6,53.5,14.1,61.9c6.6,12.5,15,14.1,27.9,5.3
		c16.6-11.3,62.9-56.6,68-66.6c2.8-5.5,6-17.5,7.3-27.4c0.5-3.7,3.8-17.1,7.5-29.8c3.6-12.7,6.6-23.7,6.6-24.4
		c0-2.7,11.1-29.3,17.7-42.6c8.5-17,11.5-19.3,25.5-19.2c8.6,0.1,9.4,0.3,13,4.4c5.1,5.7,4.8,9.1-1.3,17.7c-2.8,4-6.2,10.8-7.5,15.2
		c-1.3,4.4-4.9,13.7-8,20.7c-11,24.7-12.7,29-12.7,32.9c0,2.1-1.5,9.6-3.3,16.6s-4.8,21.1-6.5,31.4c-2.1,11.9-4.6,21.9-7.2,27.9
		c-3.6,8.3-3.9,10.2-3.3,19.2c0.4,6.3-0.1,14-1.4,20.7c-1.1,5.9-2.4,19.9-2.9,31.3c-0.5,11.3-1.7,24.2-2.7,28.7s-2.8,14.2-3.9,21.7
		c-1.1,7.5-3,15.9-4.2,18.7c-1.4,3.2-2.1,8.7-2.1,15c0.1,8.5-0.4,10.8-3.5,16c-3.5,5.9-3.6,6.6-3.7,28.8
		c-0.1,20.3-0.5,24.1-3.7,35.8c-3.1,11.3-3.6,15.7-3.6,31.3c0,23-2.6,42.6-9.4,72.2c-3,12.8-6.3,30.2-7.4,38.7
		c-1.1,8.4-2.9,18.1-3.9,21.5c-1.1,3.4-2.8,12.5-3.8,20.3c-1,7.8-4,22.1-6.5,31.9c-2.6,9.7-6.6,25.2-8.8,34.4
		c-6.5,26.1-10.4,37.2-16.5,46.6c-3.1,4.8-6.3,10.6-7.1,13c-2,5.9-20.3,36.9-26.9,45.8c-16.6,22.2-26.7,31.2-53.3,47.7
		c-15.8,9.8-20.1,11.6-44.8,19.1l-17.3,5.3l-30,0.5C661.4,1354.4,647.9,1353.9,629.9,1352.1L629.9,1352.1z M698.5,1338.1
		c17.4-2.3,47.6-12.2,60.6-19.8c15.8-9.2,33.5-28.5,52.5-57.5c11.6-17.7,22.6-42.7,32.8-74.9c4.2-13.2,8.8-27.3,10.2-31.3
		c4.3-12.1,14.6-62.5,20.4-100c1.9-12.1,4.9-29.5,6.7-38.7c1.8-9.2,3.9-22.6,4.7-29.8c0.8-7.2,2.1-14.7,2.9-16.7
		c0.8-1.9,2.2-10.4,3.2-18.9c1-8.4,2.4-19.2,3.1-24c0.7-4.8,2-19.5,2.8-32.7c1.5-24.2,3.1-38.7,5.2-47.3c0.6-2.6,1.8-14.3,2.7-26
		c2.4-33.6,4-47.5,6.2-54.7c1.1-3.7,2.5-12.1,3.1-18.7c0.6-6.6,2.2-16,3.5-21c2.5-8.9,2.5-9-0.3-12.7c-1.9-2.5-4-3.7-6.6-3.7
		c-3.2,0-5.2,1.9-13.4,12.7c-18.6,24.4-37.1,38.7-52.7,40.8c-7.3,1-30.4-2.8-38.9-6.5c-8.3-3.5-14.8-11.3-18.3-21.7
		c-2.8-8.6-6.4-13-11.7-14.6c-4.1-1.3-6.2,0.7-10.9,10.5c-2.2,4.5-7.3,12.1-11.4,16.8s-7.6,9.9-7.9,11.3
		c-2.7,14.6-4.1,18.7-8.9,26.2c-3,4.6-7.1,9.8-9.3,11.5c-5,4-14.2,17.2-19.8,28.6c-6.3,12.7-13.5,17.4-32.1,21
		c-9.6,1.9-37.8-0.1-43.5-3.1c-9.4-4.9-17.7-18.7-20.5-34.2c-2-11.1-0.7-34.6,2.8-48.2c1.4-5.6,2.6-12.2,2.6-14.7
		c0-8.5-7-14.3-13.3-11.1c-6.8,3.5-8.6,6.9-9.4,17.9c-0.8,11.2,0.3,8.9-18.6,38.8c-5.3,8.4-11.8,19.8-14.4,25.3
		c-2.6,5.5-6,12.1-7.6,14.7c-1.6,2.6-3.4,6.2-4,8s-3.6,6.7-6.8,10.8c-3.2,4.1-6.9,10.5-8.3,14.2c-1.4,3.7-4.1,8.7-6,11.3
		s-4.9,7.9-6.7,11.9c-1.8,4-5.1,10.2-7.3,13.7s-4.7,9.4-5.5,13.1s-2.9,9.5-4.7,12.9c-4.6,8.6-13.3,31.4-15.3,40.2
		c-0.9,4-3.7,11.2-6.1,16c-2.4,4.8-5.3,12.4-6.5,16.9c-1.2,4.5-3.2,10.8-4.5,14c-3.5,8.2-6.8,20.9-8.8,33.5c-1,6-3.4,18.4-5.3,27.5
		c-3.5,16.1-3.6,17.6-2.9,46.7c1.1,46.1,2.6,68,5.1,73.5c1.2,2.6,3.7,10.4,5.6,17.3c4.9,17.5,6.6,21.1,18.3,38.5
		c10,15,16.7,22.4,37.4,41.2c14.8,13.5,43.2,27.5,69.2,34.1c7,1.8,16.5,4.5,21.2,6c5.5,1.8,12.3,2.8,19.3,2.8
		c6,0.1,15.6,0.9,21.5,1.8C668.2,1340.3,681.7,1340.3,698.5,1338.1L698.5,1338.1z M59.9,1141.7c40.4-32.8,100.9-93,119.5-118.8
		c18.3-25.5,32.7-43.2,44.9-55.5c6.6-6.6,13-13.8,14.4-16c3.4-5.5,3.2-16.9-0.3-24.7c-1.5-3.3-4.5-10.5-6.6-16.1
		c-4.8-12.4-9.2-19.4-22.6-35.9c-15.1-18.6-18.8-20.6-31.4-16.1c-4.3,1.5-11,4.7-15,7.1c-8.6,5.2-30.9,26.5-39.5,37.7
		c-3.3,4.4-9.1,11.8-12.8,16.5s-9.8,14-13.6,20.7c-3.8,6.6-8.9,14.4-11.3,17.1c-2.5,2.8-5.9,8.3-7.7,12.3s-5.1,10-7.4,13.4
		c-6,8.8-11.6,21.6-15.3,35.4c-1.8,6.6-4.7,15.1-6.5,18.9c-1.9,4.1-3.9,11.9-4.8,18.8c-0.9,6.5-3,15.6-4.7,20.2
		c-4.2,11.1-5.9,24-6.3,46.6c-0.3,19.9,0.6,23.8,6,26C45.5,1152,48.7,1150.8,59.9,1141.7L59.9,1141.7z M670,397.3
		c4.3-2.9,9.7-6.6,11.9-8.1c2.2-1.5,9.4-5.9,16-9.7c11.6-6.7,24.8-16.6,41.3-30.8c4.4-3.8,11-9.1,14.7-11.7
		c10.9-7.9,60.1-59.4,75.5-79c4-5.1,12.3-16.8,18.4-26c6.1-9.2,13-19.4,15.4-22.7c12.8-17.7,28.7-52.1,34.2-74
		c0.7-2.9,2.6-10,4.1-15.6c2.6-9.9,2.6-10.6,0.4-19.6l-2.3-9.3l3.5-10c2.9-8.3,3.5-12.4,3.5-24c0-16.7-1.2-20.9-6-20.9
		c-5,0-13.6,4.8-16.2,9c-10,16.3-16.9,26.1-23.2,33c-9.2,10-17.2,20.4-28.7,37.4c-5,7.3-12.7,18.5-17.1,24.9
		c-11.8,17-15.6,22.6-20.8,31.2c-11.1,18.3-30.6,46.6-33.2,48.1c-1.5,0.9-4.8,5.8-7.4,10.9c-2.5,5.1-7.3,13.5-10.7,18.7
		c-3.4,5.2-7,11.7-8.2,14.4c-1.1,2.7-4.5,8.9-7.6,13.6c-3,4.8-7.6,12.1-10.3,16.4c-2.6,4.2-7.2,11.1-10.1,15.3s-9.8,15-15.2,24
		c-5.4,9-11.2,18.1-12.9,20.1s-5.9,8.5-9.3,14.3c-3.4,5.8-8.2,12.7-10.5,15.3c-7.3,8.1-7.4,19.9-0.2,19.9
		C660.7,402.7,665.7,400.3,670,397.3L670,397.3z M1731.1,426.7c-4.7-1.9-11.3-10.5-11.3-14.7c0-5.4,6.7-12.8,12.7-13.9
		c5.2-1,15.1,2.7,20.3,7.5c5.9,5.5,2.7,15.7-6.4,20.4C1742.3,428.2,1735.5,428.5,1731.1,426.7L1731.1,426.7z"/>
</g>
</svg>
